<svg xmlns="http://www.w3.org/2000/svg" xmlns:xlink="http://www.w3.org/1999/xlink" width="300" zoomAndPan="magnify" viewBox="0 0 224.87999 225" height="300" preserveAspectRatio="xMidYMid meet" version="1.0"><defs><clipPath id="19050e1cf6"><path d="M 0 0.0585938 L 224.761719 0.0585938 L 224.761719 224.738281 L 0 224.738281 Z M 0 0.0585938 " clip-rule="nonzero"/></clipPath></defs><g clip-path="url(#19050e1cf6)"><path fill="#e3b23c" d="M 112.71875 -1.640625 C 105.730469 -1.640625 98.894531 -1.011719 92.25 0.203125 L 95.640625 18.773438 C 101.183594 17.757812 106.878906 17.222656 112.71875 17.222656 C 164.921875 17.222656 207.042969 59.34375 207.042969 111.550781 C 207.042969 163.753906 164.921875 205.875 112.71875 205.875 C 106.878906 205.875 101.183594 205.339844 95.640625 204.324219 L 92.25 222.894531 C 98.894531 224.109375 105.730469 224.738281 112.71875 224.738281 C 175.117188 224.738281 225.90625 173.949219 225.90625 111.550781 C 225.90625 49.148438 175.117188 -1.640625 112.71875 -1.640625 Z M 63.566406 9.632812 L 61.519531 10.574219 L 61.1875 10.738281 L 60.875 10.921875 L 53.839844 14.867188 L 53.527344 15.050781 L 53.230469 15.253906 L 46.542969 19.710938 L 46.25 19.914062 L 45.953125 20.136719 L 39.671875 25.089844 L 39.375 25.3125 L 39.117188 25.570312 L 33.222656 30.984375 L 32.964844 31.226562 L 32.707031 31.484375 L 30.773438 33.566406 L 44.570312 46.425781 L 46.339844 44.527344 L 51.554688 39.753906 L 57.375 35.167969 L 63.546875 31.042969 L 69.867188 27.503906 L 71.488281 26.75 Z M 151.847656 55.066406 C 150.300781 55.371094 148.871094 56.289062 147.925781 57.734375 L 97.242188 134.984375 L 75.28125 113.410156 C 72.894531 110.949219 69 110.949219 66.605469 113.410156 L 57.929688 122.417969 C 55.523438 124.898438 55.523438 128.945312 57.929688 131.425781 L 93.097656 164.550781 C 95.070312 166.570312 98.164062 168.144531 100.945312 168.144531 C 103.726562 168.144531 106.523438 166.320312 108.332031 163.59375 L 168.261719 72.03125 C 170.160156 69.144531 169.425781 65.160156 166.621094 63.1875 L 156.453125 56.039062 C 155.054688 55.058594 153.394531 54.757812 151.847656 55.066406 Z M 13.144531 57.792969 L 12.460938 58.988281 L 12.277344 59.300781 L 12.109375 59.652344 L 8.667969 66.964844 L 8.5 67.296875 L 8.371094 67.648438 L 5.480469 75.273438 L 5.351562 75.625 L 5.238281 75.972656 L 2.953125 83.878906 L 2.84375 84.226562 L 2.769531 84.613281 L 1.09375 92.738281 L 1.019531 93.125 L 0.964844 93.496094 L 0.597656 96.496094 L 19.332031 98.800781 L 19.664062 96.074219 L 21.175781 88.761719 L 23.238281 81.613281 L 25.816406 74.8125 L 29.003906 68.070312 L 29.519531 67.148438 Z M 19.296875 124.425781 L 0.542969 126.472656 L 0.671875 127.6875 L 0.707031 128.039062 L 0.78125 128.367188 L 2.109375 135.683594 L 2.179688 136.015625 L 2.253906 136.347656 L 4.097656 143.476562 L 4.1875 143.808594 L 4.300781 144.121094 L 6.621094 151.027344 L 6.714844 151.359375 L 6.84375 151.65625 L 9.640625 158.359375 L 9.769531 158.65625 L 9.917969 158.949219 L 12.867188 164.863281 L 29.742188 156.410156 L 26.90625 150.769531 L 24.324219 144.542969 L 24.269531 144.414062 L 22.335938 138.59375 L 20.621094 131.980469 L 19.386719 125.253906 Z M 44.609375 176.746094 L 30.679688 189.476562 L 31.601562 190.492188 L 31.824219 190.730469 L 32.042969 190.949219 L 37.222656 195.871094 L 37.441406 196.089844 L 37.699219 196.3125 L 43.191406 200.863281 L 43.449219 201.082031 L 43.707031 201.269531 L 49.507812 205.449219 L 49.765625 205.652344 L 50.042969 205.816406 L 56.140625 209.59375 L 56.417969 209.777344 L 56.710938 209.925781 L 63.085938 213.296875 L 71.894531 196.625 L 65.796875 193.382812 L 60.195312 189.902344 L 54.960938 186.105469 L 50.246094 182.21875 L 50.152344 182.125 L 45.382812 177.59375 Z M 44.609375 176.746094 " fill-opacity="1" fill-rule="nonzero"/></g></svg>