<svg xmlns="http://www.w3.org/2000/svg" xmlns:xlink="http://www.w3.org/1999/xlink" width="300" zoomAndPan="magnify" viewBox="0 0 224.87999 225" height="300" preserveAspectRatio="xMidYMid meet" version="1.0"><defs><clipPath id="66f667acfc"><path d="M 5.484375 28.226562 L 219.121094 28.226562 L 219.121094 196.886719 L 5.484375 196.886719 Z M 5.484375 28.226562 " clip-rule="nonzero"/></clipPath></defs><g clip-path="url(#66f667acfc)"><path fill="#9c0d38" d="M 111.972656 196.824219 C 85.515625 196.828125 59.054688 196.839844 32.601562 196.820312 C 15.691406 196.808594 5.507812 186.59375 5.5 169.660156 C 5.484375 140.125 5.480469 110.59375 5.488281 81.058594 C 5.496094 64.164062 15.773438 53.921875 32.6875 53.914062 C 50.949219 53.910156 69.210938 53.855469 87.472656 53.984375 C 90.171875 54.003906 91.355469 53.148438 92.527344 50.691406 C 99.179688 36.726562 110.269531 28.976562 125.820312 28.65625 C 135.417969 28.457031 145.167969 28.246094 154.609375 29.660156 C 166.589844 31.449219 175.148438 39.039062 180.210938 50.019531 C 181.699219 53.253906 183.386719 54.3125 186.65625 53.960938 C 188.785156 53.730469 190.964844 53.902344 193.121094 53.917969 C 207.894531 54.023438 218.765625 64.226562 218.878906 78.964844 C 219.109375 110.085938 219.121094 141.207031 218.855469 172.324219 C 218.730469 186.570312 207.921875 196.738281 193.496094 196.792969 C 166.324219 196.898438 139.148438 196.824219 111.972656 196.824219 Z M 136.90625 67.449219 C 105.175781 67.199219 78.863281 93.015625 78.636719 124.613281 C 78.410156 156.933594 104.179688 183.300781 136.1875 183.488281 C 168.082031 183.679688 194.175781 157.800781 194.390625 125.773438 C 194.605469 93.691406 168.988281 67.703125 136.90625 67.449219 Z M 38.390625 70.210938 C 30.027344 70.238281 23.257812 77.078125 23.386719 85.371094 C 23.515625 93.507812 30.207031 100.226562 38.277344 100.316406 C 46.53125 100.40625 53.433594 93.574219 53.476562 85.261719 C 53.523438 76.917969 46.777344 70.183594 38.390625 70.210938 Z M 38.390625 70.210938 " fill-opacity="1" fill-rule="nonzero"/></g><path fill="#9c0d38" d="M 136.402344 84.027344 C 159.386719 83.976562 177.839844 102.378906 177.855469 125.371094 C 177.871094 148.269531 159.179688 167.035156 136.472656 166.910156 C 113.828125 166.792969 95.304688 148.308594 95.125 125.660156 C 94.949219 102.875 113.585938 84.078125 136.402344 84.027344 Z M 136.402344 84.027344 " fill-opacity="1" fill-rule="nonzero"/></svg>